<svg xmlns="http://www.w3.org/2000/svg" width="512" height="512" viewBox="0 0 512 512">
<defs>
<filter id="shadow" x="-50%" y="-50%" width="200%" height="200%"><feDropShadow dx="0" dy="18" stdDeviation="15" flood-color="#000" flood-opacity=".55"/></filter>
<filter id="soft" x="-50%" y="-50%" width="200%" height="200%"><feGaussianBlur stdDeviation="10"/></filter>
<filter id="glow" x="-80%" y="-80%" width="260%" height="260%"><feGaussianBlur stdDeviation="8" result="b"/><feMerge><feMergeNode in="b"/><feMergeNode in="SourceGraphic"/></feMerge></filter>
<linearGradient id="metalBlue" x1="0" y1="0" x2="1" y2="1"><stop stop-color="#8BE8FF"/><stop offset=".22" stop-color="#2A88E8"/><stop offset=".58" stop-color="#164B9D"/><stop offset="1" stop-color="#0A1E55"/></linearGradient>
<linearGradient id="metalOrange" x1="0" y1="0" x2="1" y2="1"><stop stop-color="#FFE27B"/><stop offset=".2" stop-color="#F7A02D"/><stop offset=".62" stop-color="#B83E20"/><stop offset="1" stop-color="#57162B"/></linearGradient>
<linearGradient id="metalPurple" x1="0" y1="0" x2="1" y2="1"><stop stop-color="#F8A9FF"/><stop offset=".25" stop-color="#9D4AF0"/><stop offset=".65" stop-color="#44218F"/><stop offset="1" stop-color="#160B4F"/></linearGradient>
<linearGradient id="metalGold" x1="0" y1="0" x2="1" y2="1"><stop stop-color="#FFF1A3"/><stop offset=".25" stop-color="#FFC64D"/><stop offset=".62" stop-color="#D3691E"/><stop offset="1" stop-color="#69220D"/></linearGradient>
<radialGradient id="coreCyan"><stop stop-color="#FFFFFF"/><stop offset=".18" stop-color="#83F4FF"/><stop offset=".55" stop-color="#23BEEB"/><stop offset="1" stop-color="#2438A2"/></radialGradient>
<radialGradient id="corePurple"><stop stop-color="#FFFFFF"/><stop offset=".18" stop-color="#F8A1FF"/><stop offset=".55" stop-color="#A64BFF"/><stop offset="1" stop-color="#381B94"/></radialGradient>
<linearGradient id="glass" x1="0" y1="0" x2="0" y2="1"><stop stop-color="#BFFFFF" stop-opacity=".94"/><stop offset=".45" stop-color="#3FC8F7" stop-opacity=".66"/><stop offset="1" stop-color="#16468F" stop-opacity=".9"/></linearGradient>
</defs><rect width="512" height="512" fill="none"/><circle cx="397" cy="169" r="2" fill="#67D9FF" opacity="0.35"/><circle cx="114" cy="260" r="3" fill="#67D9FF" opacity="0.43"/><circle cx="181" cy="81" r="4" fill="#67D9FF" opacity="0.51"/><circle cx="248" cy="172" r="2" fill="#67D9FF" opacity="0.59"/><circle cx="315" cy="263" r="3" fill="#67D9FF" opacity="0.6699999999999999"/><circle cx="382" cy="84" r="4" fill="#67D9FF" opacity="0.35"/><circle cx="99" cy="175" r="2" fill="#67D9FF" opacity="0.43"/><circle cx="166" cy="266" r="3" fill="#67D9FF" opacity="0.51"/><circle cx="233" cy="87" r="4" fill="#67D9FF" opacity="0.59"/><circle cx="300" cy="178" r="2" fill="#67D9FF" opacity="0.6699999999999999"/><circle cx="367" cy="269" r="3" fill="#67D9FF" opacity="0.35"/><ellipse cx="256" cy="410" rx="110" ry="24" fill="none" stroke="#67D9FF" stroke-width="4" opacity="0.45"/><ellipse cx="256" cy="410" rx="128" ry="29" fill="none" stroke="#67D9FF" stroke-width="3" opacity="0.37"/><ellipse cx="256" cy="410" rx="146" ry="34" fill="none" stroke="#67D9FF" stroke-width="2" opacity="0.29000000000000004"/><ellipse cx="256" cy="430" rx="160" ry="34" fill="#01030A" opacity=".68"/><ellipse cx="256" cy="424" rx="132" ry="20" fill="#16285F" opacity=".58"/><g filter="url(#shadow)"><path d="M176 250 L118 220 L107 284 L166 312Z" fill="url(#metalGold)" stroke="#FFF0A6" stroke-width="6"/><path d="M336 250 L394 220 L405 284 L346 312Z" fill="url(#metalGold)" stroke="#FFF0A6" stroke-width="6"/><path d="M124 317 L157 184 L256 133 L355 184 L388 317 L323 368 H189Z" fill="url(#metalGold)" stroke="#FFF1A5" stroke-width="7"/>
        <ellipse cx="256" cy="258" rx="94" ry="72" fill="#0B163F" stroke="#B7F7FF" stroke-width="8"/><ellipse cx="256" cy="258" rx="63" ry="43" fill="url(#coreCyan)" filter="url(#glow)"/><path d="M190 157 L174 105 M322 157 L338 105" stroke="#7BE9FF" stroke-width="8" stroke-linecap="round"/><circle cx="256" cy="148" r="14" fill="url(#coreCyan)"/><ellipse cx="256" cy="272" rx="125" ry="65" fill="none" stroke="#70DFFF" stroke-width="6" stroke-dasharray="12 10"/><path d="M151 341 Q256 399 361 341" fill="none" stroke="#FFD86A" stroke-width="9"/></g><g transform="translate(196 445)"><rect width="120" height="42" rx="21" fill="#071126" stroke="#67D9FF" stroke-width="3"/><text x="60" y="28" text-anchor="middle" font-family="Arial,sans-serif" font-size="22" font-weight="800" fill="#fff">Lv.29</text></g></svg>