<svg xmlns="http://www.w3.org/2000/svg" width="512" height="512" viewBox="0 0 512 512">
<defs>
<filter id="shadow" x="-50%" y="-50%" width="200%" height="200%"><feDropShadow dx="0" dy="18" stdDeviation="15" flood-color="#000" flood-opacity=".55"/></filter>
<filter id="soft" x="-50%" y="-50%" width="200%" height="200%"><feGaussianBlur stdDeviation="10"/></filter>
<filter id="glow" x="-80%" y="-80%" width="260%" height="260%"><feGaussianBlur stdDeviation="8" result="b"/><feMerge><feMergeNode in="b"/><feMergeNode in="SourceGraphic"/></feMerge></filter>
<linearGradient id="metalBlue" x1="0" y1="0" x2="1" y2="1"><stop stop-color="#8BE8FF"/><stop offset=".22" stop-color="#2A88E8"/><stop offset=".58" stop-color="#164B9D"/><stop offset="1" stop-color="#0A1E55"/></linearGradient>
<linearGradient id="metalOrange" x1="0" y1="0" x2="1" y2="1"><stop stop-color="#FFE27B"/><stop offset=".2" stop-color="#F7A02D"/><stop offset=".62" stop-color="#B83E20"/><stop offset="1" stop-color="#57162B"/></linearGradient>
<linearGradient id="metalPurple" x1="0" y1="0" x2="1" y2="1"><stop stop-color="#F8A9FF"/><stop offset=".25" stop-color="#9D4AF0"/><stop offset=".65" stop-color="#44218F"/><stop offset="1" stop-color="#160B4F"/></linearGradient>
<linearGradient id="metalGold" x1="0" y1="0" x2="1" y2="1"><stop stop-color="#FFF1A3"/><stop offset=".25" stop-color="#FFC64D"/><stop offset=".62" stop-color="#D3691E"/><stop offset="1" stop-color="#69220D"/></linearGradient>
<radialGradient id="coreCyan"><stop stop-color="#FFFFFF"/><stop offset=".18" stop-color="#83F4FF"/><stop offset=".55" stop-color="#23BEEB"/><stop offset="1" stop-color="#2438A2"/></radialGradient>
<radialGradient id="corePurple"><stop stop-color="#FFFFFF"/><stop offset=".18" stop-color="#F8A1FF"/><stop offset=".55" stop-color="#A64BFF"/><stop offset="1" stop-color="#381B94"/></radialGradient>
<linearGradient id="glass" x1="0" y1="0" x2="0" y2="1"><stop stop-color="#BFFFFF" stop-opacity=".94"/><stop offset=".45" stop-color="#3FC8F7" stop-opacity=".66"/><stop offset="1" stop-color="#16468F" stop-opacity=".9"/></linearGradient>
</defs><rect width="512" height="512" fill="none"/><circle cx="208" cy="116" r="2" fill="#74FFFF" opacity="0.35"/><circle cx="275" cy="207" r="3" fill="#74FFFF" opacity="0.43"/><circle cx="342" cy="298" r="4" fill="#74FFFF" opacity="0.51"/><circle cx="409" cy="119" r="2" fill="#74FFFF" opacity="0.59"/><circle cx="126" cy="210" r="3" fill="#74FFFF" opacity="0.6699999999999999"/><circle cx="193" cy="301" r="4" fill="#74FFFF" opacity="0.35"/><circle cx="260" cy="122" r="2" fill="#74FFFF" opacity="0.43"/><circle cx="327" cy="213" r="3" fill="#74FFFF" opacity="0.51"/><circle cx="394" cy="304" r="4" fill="#74FFFF" opacity="0.59"/><circle cx="111" cy="125" r="2" fill="#74FFFF" opacity="0.6699999999999999"/><circle cx="178" cy="216" r="3" fill="#74FFFF" opacity="0.35"/><circle cx="245" cy="307" r="4" fill="#74FFFF" opacity="0.43"/><ellipse cx="256" cy="410" rx="110" ry="24" fill="none" stroke="#74FFFF" stroke-width="4" opacity="0.45"/><ellipse cx="256" cy="410" rx="128" ry="29" fill="none" stroke="#74FFFF" stroke-width="3" opacity="0.37"/><ellipse cx="256" cy="410" rx="146" ry="34" fill="none" stroke="#74FFFF" stroke-width="2" opacity="0.29000000000000004"/><ellipse cx="256" cy="430" rx="160" ry="34" fill="#01030A" opacity=".68"/><ellipse cx="256" cy="424" rx="132" ry="20" fill="#16285F" opacity=".58"/><g filter="url(#shadow)"><ellipse cx="256" cy="250" rx="95" ry="45" fill="none" stroke="#74FFFF" stroke-width="8" transform="rotate(108 256 250)" opacity="0.9"/><ellipse cx="256" cy="250" rx="117" ry="59" fill="none" stroke="#F6B5FF" stroke-width="7" transform="rotate(156 256 250)" opacity="0.78"/><ellipse cx="256" cy="250" rx="139" ry="73" fill="none" stroke="#74FFFF" stroke-width="6" transform="rotate(204 256 250)" opacity="0.66"/><ellipse cx="256" cy="250" rx="161" ry="87" fill="none" stroke="#F6B5FF" stroke-width="5" transform="rotate(252 256 250)" opacity="0.54"/><circle cx="396.0" cy="250.0" r="10" fill="url(#coreCyan)" stroke="#fff" stroke-width="2"/><circle cx="363.2" cy="302.7" r="10" fill="url(#coreCyan)" stroke="#fff" stroke-width="2"/><circle cx="280.3" cy="330.8" r="10" fill="url(#coreCyan)" stroke="#fff" stroke-width="2"/><circle cx="186.0" cy="321.0" r="10" fill="url(#coreCyan)" stroke="#fff" stroke-width="2"/><circle cx="124.4" cy="278.0" r="10" fill="url(#coreCyan)" stroke="#fff" stroke-width="2"/><circle cx="124.4" cy="222.0" r="10" fill="url(#coreCyan)" stroke="#fff" stroke-width="2"/><circle cx="186.0" cy="179.0" r="10" fill="url(#coreCyan)" stroke="#fff" stroke-width="2"/><circle cx="280.3" cy="169.2" r="10" fill="url(#coreCyan)" stroke="#fff" stroke-width="2"/><circle cx="363.2" cy="197.3" r="10" fill="url(#coreCyan)" stroke="#fff" stroke-width="2"/><circle cx="256" cy="250" r="75" fill="url(#coreCyan)" stroke="#E8FFFF" stroke-width="8" filter="url(#glow)"/>
        <path d="M158 356 Q256 408 354 356 L328 399 Q256 432 184 399Z" fill="url(#metalGold)" stroke="#C6FFFF" stroke-width="7"/><path d="M165 365 Q256 410 347 365" fill="none" stroke="#FFD86A" stroke-width="10"/><circle cx="256" cy="250" r="128" fill="none" stroke="#FBD765" stroke-width="6" stroke-dasharray="16 12"/><path d="M256 78 L274 122 L322 126 L285 156 L296 204 L256 178 L216 204 L227 156 L190 126 L238 122Z" fill="url(#metalGold)" stroke="#FFF2A4" stroke-width="5" filter="url(#glow)"/></g><g transform="translate(196 445)"><rect width="120" height="42" rx="21" fill="#071126" stroke="#74FFFF" stroke-width="3"/><text x="60" y="28" text-anchor="middle" font-family="Arial,sans-serif" font-size="22" font-weight="800" fill="#fff">Lv.36</text></g></svg>